<?xml version="1.0" encoding="UTF-8"?>
<!-- Generator: visioncortex VTracer 0.6.4 -->
<svg version="1.1" xmlns="http://www.w3.org/2000/svg" width="1289" height="338">
<path d="M0 0 C1 -0.01 2 -0.02 3.03 -0.03 C6.35 -0.05 9.67 -0.03 12.99 -0.01 C15.39 -0.01 17.78 -0.02 20.17 -0.03 C25.98 -0.05 31.79 -0.05 37.59 -0.02 C42.32 -0.01 47.04 -0 51.76 -0.01 C52.43 -0.01 53.1 -0.01 53.8 -0.01 C55.17 -0.01 56.54 -0.01 57.9 -0.01 C70.72 -0.03 83.53 -0 96.34 0.03 C107.32 0.07 118.3 0.07 129.29 0.05 C142.06 0.03 154.83 0.02 167.6 0.04 C168.96 0.04 170.32 0.05 171.69 0.05 C172.69 0.05 172.69 0.05 173.72 0.05 C178.43 0.06 183.15 0.05 187.86 0.04 C194.21 0.03 200.56 0.05 206.9 0.08 C209.23 0.09 211.56 0.09 213.89 0.08 C217.07 0.07 220.25 0.09 223.43 0.11 C224.35 0.1 225.27 0.09 226.22 0.08 C232.48 0.18 236.77 1.69 241.59 5.76 C244.95 10.06 246.72 13.49 246.7 18.95 C246.7 19.79 246.7 20.63 246.7 21.5 C246.7 22.4 246.69 23.31 246.69 24.24 C246.68 25.63 246.68 25.63 246.68 27.05 C246.68 30.01 246.66 32.98 246.65 35.94 C246.65 37.95 246.64 39.96 246.64 41.97 C246.63 46.9 246.61 51.83 246.59 56.76 C254.51 56.76 262.43 56.76 270.59 56.76 C270.59 138.93 270.59 221.1 270.59 305.76 C198.14 305.92 198.14 305.92 167.89 305.95 C160.97 305.96 154.05 305.97 147.13 305.97 C146.26 305.98 145.39 305.98 144.5 305.98 C130.49 306 116.49 306.03 102.48 306.06 C88.11 306.1 73.73 306.12 59.36 306.13 C50.49 306.14 41.62 306.15 32.75 306.19 C26.67 306.21 20.59 306.21 14.51 306.21 C11 306.21 7.49 306.21 3.98 306.23 C0.17 306.25 -3.63 306.25 -7.44 306.24 C-8.55 306.25 -9.65 306.26 -10.79 306.27 C-18.91 306.21 -24.26 304.63 -30.29 299.13 C-36.26 289.64 -34.61 277.55 -34.41 266.76 C-42.1 270.33 -49.24 274.62 -56.43 279.1 C-57.19 279.57 -57.95 280.04 -58.73 280.52 C-59.41 280.95 -60.1 281.38 -60.8 281.82 C-62.41 282.76 -62.41 282.76 -63.41 282.76 C-64.05 251.2 -64.55 219.64 -64.84 188.08 C-64.88 184.34 -64.91 180.61 -64.95 176.88 C-64.96 176.13 -64.96 175.39 -64.97 174.63 C-65.09 162.62 -65.31 150.62 -65.57 138.62 C-65.83 126.28 -65.99 113.95 -66.05 101.61 C-66.08 94.69 -66.17 87.77 -66.37 80.85 C-67.63 37.47 -67.63 37.47 -60.67 28.81 C-54.54 22.6 -46.89 19.46 -38.69 16.86 C-34.28 15.37 -30.63 13.15 -26.79 10.57 C-24.66 9.3 -22.54 8.03 -20.41 6.76 C-19.71 6.27 -19 5.78 -18.27 5.28 C-12.02 1.14 -7.43 -0.11 0 0 Z " fill="#37A5CB" transform="translate(81.41189575195313,22.244827270507813)"/>
<path d="M0 0 C7.92 0 15.84 0 24 0 C24 82.17 24 164.34 24 249 C-48.45 249.16 -48.45 249.16 -78.7 249.2 C-85.62 249.2 -92.54 249.21 -99.46 249.22 C-100.33 249.22 -101.2 249.22 -102.09 249.22 C-116.1 249.24 -130.1 249.27 -144.11 249.31 C-158.48 249.35 -172.85 249.37 -187.23 249.38 C-196.1 249.38 -204.97 249.4 -213.83 249.43 C-219.92 249.45 -226 249.46 -232.08 249.45 C-235.59 249.45 -239.1 249.46 -242.61 249.48 C-246.41 249.5 -250.22 249.49 -254.03 249.48 C-255.13 249.49 -256.24 249.5 -257.38 249.52 C-265.49 249.45 -270.85 247.88 -276.88 242.38 C-279.62 238.02 -280.12 234.01 -281 229 C-281.26 227.74 -281.26 227.74 -281.53 226.44 C-282.71 220.16 -283.22 214.1 -281 208 C-278.14 204.69 -274.81 202.61 -271.05 200.43 C-270.02 199.82 -268.99 199.22 -267.93 198.59 C-256.06 192.19 -244.9 192.12 -231.71 192.41 C-229.16 192.41 -226.61 192.41 -224.07 192.4 C-218.64 192.4 -213.22 192.44 -207.79 192.52 C-199.94 192.63 -192.1 192.67 -184.25 192.69 C-171.51 192.72 -158.77 192.81 -146.04 192.94 C-133.68 193.07 -121.32 193.17 -108.97 193.23 C-107.81 193.24 -107.81 193.24 -106.63 193.24 C-100.58 193.27 -94.54 193.3 -88.5 193.33 C-59 193.46 -29.5 193.74 0 194 C0 129.98 0 65.96 0 0 Z " fill="#35687E" transform="translate(328,79)"/>
<path d="M0 0 C0.57 31.59 1.01 63.18 1.28 94.78 C1.31 98.52 1.34 102.25 1.37 105.99 C1.38 106.73 1.39 107.47 1.39 108.24 C1.5 120.26 1.7 132.28 1.93 144.29 C2.16 156.64 2.3 168.98 2.35 181.33 C2.38 188.26 2.46 195.19 2.64 202.12 C3.81 247.15 3.81 247.15 -3.88 255.27 C-9.2 259.88 -15.31 262.22 -22.01 264.08 C-26.34 265.41 -29.81 267.66 -33.53 270.18 C-34.72 270.92 -35.91 271.64 -37.1 272.36 C-38.85 273.43 -40.59 274.49 -42.33 275.56 C-44.11 276.65 -45.88 277.73 -47.66 278.81 C-48.66 279.43 -49.67 280.04 -50.71 280.68 C-53 282 -53 282 -54 282 C-54.64 250.44 -55.13 218.89 -55.43 187.32 C-55.46 183.59 -55.5 179.86 -55.54 176.12 C-55.55 175.38 -55.55 174.64 -55.56 173.87 C-55.68 161.86 -55.9 149.86 -56.16 137.86 C-56.42 125.53 -56.58 113.19 -56.63 100.86 C-56.67 93.93 -56.75 87.02 -56.96 80.1 C-58.22 36.71 -58.22 36.71 -51.26 28.05 C-45.13 21.85 -37.48 18.7 -29.28 16.11 C-24.86 14.62 -21.22 12.39 -17.38 9.81 C-16.27 9.15 -15.16 8.49 -14.02 7.8 C-11.98 6.59 -9.95 5.36 -7.92 4.13 C-7 3.57 -6.08 3.01 -5.12 2.44 C-4.34 1.96 -3.56 1.49 -2.76 1 C-1 0 -1 0 0 0 Z " fill="#7CC5DC" transform="translate(72,23)"/>
<path d="M0 0 C0.7 0.8 1.4 1.61 2.12 2.44 C2.83 3.2 3.53 3.96 4.25 4.75 C8.54 10.9 9.68 16.99 9.62 24.31 C9.62 25.49 9.62 25.49 9.62 26.69 C9.46 33.15 7.88 38.1 4.12 43.44 C3.47 43.44 2.81 43.44 2.12 43.44 C2.12 44.1 2.12 44.76 2.12 45.44 C0.33 46.87 0.33 46.87 -2.06 48.44 C-2.84 48.95 -3.62 49.47 -4.42 50 C-6.84 51.42 -9.24 52.46 -11.88 53.44 C-10.48 54.09 -10.48 54.09 -9.06 54.76 C0.64 59.39 8.29 63.4 13.12 73.44 C14.65 78.37 14.39 83.45 14.44 88.56 C14.48 90.06 14.48 90.06 14.53 91.58 C14.61 102.05 11.62 109.81 4.39 117.4 C-7.37 127.97 -22.63 131.84 -38.06 131.75 C-39.58 131.74 -39.58 131.74 -41.13 131.73 C-55.88 131.5 -69.45 128.36 -80.88 118.44 C-87.92 110.55 -92.88 101.14 -92.88 90.44 C-82.31 90.44 -71.75 90.44 -60.88 90.44 C-59.22 93.74 -57.57 97.04 -55.88 100.44 C-52 104.75 -47.48 105.85 -41.88 106.44 C-35.7 106.61 -30.59 105.61 -25.5 102 C-21.2 97.87 -20.7 92.67 -20.44 86.94 C-20.62 81.75 -21.45 77.47 -24.88 73.44 C-29.9 69.89 -35.33 68.41 -41.42 68.12 C-42.18 68.08 -42.94 68.04 -43.73 68.01 C-45.16 67.94 -45.16 67.94 -46.62 67.88 C-49.68 67.73 -52.73 67.59 -55.88 67.44 C-55.88 59.85 -55.88 52.26 -55.88 44.44 C-52.38 43.56 -50.25 43.41 -46.75 43.56 C-40.02 43.62 -33.72 42.66 -28.31 38.44 C-24.74 33.46 -25.46 27.29 -25.88 21.44 C-27.11 17.52 -28.08 16.05 -31.31 13.56 C-37.64 11.56 -44.05 11.53 -50.38 13.56 C-55.42 17.35 -56.9 21.51 -58.88 27.44 C-69.44 27.44 -80 27.44 -90.88 27.44 C-90.88 16.73 -87.04 8.77 -79.75 0.94 C-59.26 -18.69 -21.04 -18.76 0 0 Z " fill="#FDFEFE" transform="translate(236.875,88.5625)"/>
<path d="M0 0 C8.46 7.91 14.15 19.22 14.81 30.87 C15.46 51.55 15.46 51.55 11.69 60.69 C11.36 61.52 11.03 62.35 10.69 63.21 C5.77 74.28 -3.08 83.42 -14.37 87.9 C-31.07 93.64 -51.32 94.47 -67.63 87.21 C-80.07 81.01 -88.5 72.17 -93.12 58.94 C-97.45 45.21 -96.84 28.88 -91.31 15.69 C-91.02 14.95 -90.74 14.2 -90.44 13.44 C-85.38 1.87 -75.59 -4.71 -64.38 -9.56 C-43.01 -17.5 -17.8 -14.48 0 0 Z M-62.81 17.88 C-69.76 26.65 -70.36 35.69 -69.31 46.69 C-67.44 54.65 -64.45 60.68 -57.62 65.38 C-49.09 70.41 -39.09 70.86 -29.61 68.5 C-22.83 66.1 -17.69 62.06 -14.24 55.74 C-10.15 46.71 -9.84 36.2 -12.94 26.81 C-16.04 19.36 -20.05 14.8 -27.38 11.41 C-39.24 6.95 -53.88 8.59 -62.81 17.88 Z " fill="#000000" transform="translate(835.3125,33.3125)"/>
<path d="M0 0 C9.47 -0.06 18.93 -0.12 28.69 -0.19 C33.13 -0.23 33.13 -0.23 37.66 -0.27 C40.05 -0.28 42.44 -0.29 44.82 -0.29 C46.03 -0.31 47.24 -0.32 48.48 -0.34 C60.9 -0.34 72.46 1.19 81.9 9.71 C91.79 19.92 92.22 33.22 92.3 46.67 C92.31 48.12 92.33 49.57 92.36 51.02 C92.62 63.64 92.26 78.58 83.49 88.53 C73.38 98.49 60.74 100.23 47.02 100.23 C45.84 100.22 44.67 100.21 43.46 100.2 C42.35 100.19 41.24 100.19 40.1 100.19 C36 100.18 31.91 100.15 27.81 100.12 C18.63 100.08 9.46 100.04 0 100 C0 67 0 34 0 0 Z M26 22 C26 40.48 26 58.96 26 78 C49.61 79.94 49.61 79.94 60 74 C66.44 66.37 66.34 58.08 66.31 48.56 C66.33 47.47 66.34 46.37 66.36 45.25 C66.37 37.37 65.78 31.27 60.5 25.06 C56.5 21.76 53.39 21.88 48.36 21.9 C47.19 21.9 46.02 21.91 44.82 21.91 C43.33 21.92 41.84 21.93 40.31 21.94 C35.59 21.96 30.87 21.98 26 22 Z " fill="#000000" transform="translate(864,23)"/>
<path d="M0 0 C6.85 5.71 11.27 11.78 12.23 20.77 C12.31 22.25 12.38 23.73 12.41 25.21 C-5.36 27.62 -5.36 27.62 -12.59 25.21 C-13.17 23.82 -13.17 23.82 -13.77 22.4 C-16.56 17.49 -20.73 16.11 -25.96 14.46 C-34.67 13.63 -43.21 13.82 -50.84 18.63 C-52.88 20.16 -52.88 20.16 -53.21 23.15 C-52.87 26.4 -52.87 26.4 -50.15 28.3 C-46.02 30.86 -41.71 31.24 -36.96 31.77 C-35.09 32.02 -33.21 32.26 -31.34 32.5 C-29.42 32.74 -27.5 32.98 -25.59 33.21 C1.78 36.55 1.78 36.55 9.41 46.21 C14.36 54.62 16.18 63.34 13.7 73.01 C10.11 82.55 4.4 87.7 -4.59 92.21 C-13.6 95.89 -21.98 96.42 -31.65 96.46 C-32.81 96.48 -33.98 96.5 -35.18 96.52 C-47.48 96.58 -60.17 94.46 -69.84 86.31 C-75.92 80.11 -79.44 72.59 -79.68 63.85 C-79.65 62.98 -79.62 62.11 -79.59 61.21 C-75.69 60.98 -71.8 60.84 -67.9 60.71 C-66.8 60.64 -65.69 60.58 -64.56 60.51 C-61.38 60.43 -58.67 60.45 -55.59 61.21 C-53.64 63.12 -52.65 64.81 -51.55 67.29 C-50.02 70.34 -47.68 71.09 -44.59 72.21 C-40.17 73.49 -35.9 73.43 -31.34 73.46 C-30.51 73.48 -29.69 73.5 -28.85 73.52 C-23.08 73.56 -18.85 72.62 -13.59 70.21 C-11.23 68.27 -11.23 68.27 -11.21 64.77 C-11.2 61.23 -11.2 61.23 -13.3 59.56 C-21.43 54.77 -33.8 55.35 -43 54.44 C-54.73 53.19 -64.7 50.84 -73.4 42.52 C-78.25 35.17 -79.64 27.18 -78.12 18.55 C-76.11 9.87 -72.52 4.04 -65.21 -1.1 C-61.15 -3.6 -57.17 -5.48 -52.59 -6.79 C-51.9 -6.99 -51.21 -7.2 -50.5 -7.41 C-34.14 -11.47 -14.04 -9.71 0 0 Z " fill="#000000" transform="translate(1141.5859375,28.7890625)"/>
<path d="M0 0 C26.73 0 53.46 0 81 0 C81 6.93 81 13.86 81 21 C80 22 80 22 77.83 22.12 C76.87 22.12 75.92 22.12 74.93 22.11 C73.85 22.11 72.77 22.11 71.65 22.11 C69.89 22.11 69.89 22.11 68.09 22.1 C66.89 22.1 65.7 22.09 64.46 22.09 C60.62 22.09 56.78 22.08 52.94 22.06 C50.34 22.06 47.74 22.05 45.15 22.05 C38.76 22.04 32.38 22.02 26 22 C26 27.28 26 32.56 26 38 C40.52 38 55.04 38 70 38 C70 45.26 70 52.52 70 60 C55.48 60 40.96 60 26 60 C26 65.94 26 71.88 26 78 C44.15 78 62.3 78 81 78 C81 85.26 81 92.52 81 100 C70.59 100.02 60.17 100.04 49.76 100.05 C44.92 100.06 40.09 100.06 35.26 100.08 C30.59 100.09 25.93 100.09 21.27 100.09 C19.49 100.1 17.7 100.1 15.92 100.11 C13.43 100.11 10.95 100.11 8.46 100.11 C7.34 100.12 7.34 100.12 6.2 100.12 C1.11 100.11 1.11 100.11 0 99 C-0.1 95.93 -0.13 92.87 -0.11 89.8 C-0.11 88.83 -0.11 87.87 -0.11 86.87 C-0.11 83.66 -0.11 80.45 -0.1 77.25 C-0.1 75.03 -0.09 72.81 -0.09 70.59 C-0.09 64.74 -0.08 58.89 -0.07 53.04 C-0.06 46.03 -0.05 39.01 -0.05 32 C-0.04 21.33 -0.02 10.67 0 0 Z " fill="#000000" transform="translate(970,23)"/>
<path d="M0 0 C11.22 0 22.44 0 34 0 C34.9 2.34 35.79 4.68 36.72 7.09 C44.55 27.5 52.45 47.89 60.41 68.25 C61.02 69.83 61.64 71.41 62.26 72.98 C63.84 77.03 65.43 81.08 67.02 85.13 C67.67 86.78 68.32 88.42 68.97 90.07 C69.27 90.84 69.58 91.61 69.89 92.4 C72 97.77 72 97.77 72 100 C63.09 100 54.18 100 45 100 C40 88 40 88 38 82 C24.14 82 10.28 82 -4 82 C-6.31 87.94 -8.62 93.88 -11 100 C-19.58 100 -28.16 100 -37 100 C-34.75 89.88 -34.75 89.88 -32.71 84.71 C-32.25 83.54 -31.79 82.37 -31.32 81.17 C-31.07 80.55 -30.83 79.94 -30.58 79.3 C-29.79 77.32 -29.01 75.33 -28.23 73.34 C-27.39 71.2 -26.55 69.05 -25.7 66.9 C-22.5 58.75 -19.36 50.58 -16.22 42.41 C-15.26 39.89 -14.29 37.37 -13.32 34.86 C-8.86 23.25 -4.42 11.63 0 0 Z M16 22 C14.15 27.25 12.3 32.5 10.45 37.75 C9.82 39.54 9.19 41.33 8.55 43.12 C7.65 45.68 6.75 48.24 5.84 50.81 C5.42 52.01 5.42 52.01 4.98 53.25 C3.61 56.55 3.61 56.55 3 60 C11.91 60 20.82 60 30 60 C29.21 55.27 28.16 51.14 26.57 46.67 C26.21 45.65 26.21 45.65 25.85 44.62 C25.34 43.2 24.84 41.78 24.33 40.36 C23.56 38.18 22.8 36 22.04 33.81 C21.55 32.43 21.06 31.05 20.57 29.67 C20.34 29.01 20.11 28.36 19.88 27.69 C18.79 24.16 18.79 24.16 16 22 Z " fill="#000000" transform="translate(465,23)"/>
<path d="M0 0 C8.58 0 17.16 0 26 0 C26.01 2 26.03 4 26.04 6.06 C26.09 12.67 26.16 19.28 26.24 25.9 C26.28 29.9 26.32 33.91 26.35 37.92 C26.37 41.79 26.41 45.66 26.46 49.53 C26.48 51.01 26.49 52.48 26.5 53.96 C26.51 56.03 26.54 58.1 26.57 60.17 C26.58 61.35 26.59 62.52 26.6 63.73 C27.18 68.51 28.85 71.81 32.19 75.25 C39.01 79.49 46.86 79.91 54.62 78.54 C60.65 77.02 63.62 75.24 67 70 C68.12 66.64 68.16 64.05 68.21 60.51 C68.22 59.86 68.23 59.2 68.24 58.53 C68.27 56.37 68.29 54.21 68.32 52.05 C68.34 50.55 68.36 49.06 68.38 47.56 C68.43 43.62 68.48 39.68 68.53 35.74 C68.58 31.71 68.64 27.69 68.69 23.67 C68.8 15.78 68.9 7.89 69 0 C77.25 0 85.5 0 94 0 C94.09 9.48 94.16 18.95 94.21 28.43 C94.23 32.83 94.26 37.23 94.3 41.63 C94.35 45.88 94.37 50.14 94.38 54.39 C94.39 56.01 94.4 57.62 94.42 59.24 C94.58 71.6 93.39 81.56 84.54 90.89 C73.8 99.83 61.28 102.39 47.69 102.31 C46.67 102.31 45.65 102.3 44.61 102.3 C31.2 102.08 19.06 99.03 9.06 89.56 C-0.38 79.27 -0.29 67.93 -0.2 54.69 C-0.19 53.11 -0.19 51.53 -0.19 49.95 C-0.18 45.81 -0.16 41.67 -0.14 37.54 C-0.12 33.31 -0.11 29.08 -0.1 24.85 C-0.08 16.57 -0.04 8.28 0 0 Z " fill="#000000" transform="translate(540,23)"/>
<path d="M0 0 C0 33.33 0 66.66 0 101 C-5.28 101 -10.56 101 -16 101 C-17.85 99.15 -17.17 96.12 -17.21 93.64 C-17.22 92.98 -17.23 92.32 -17.24 91.63 C-17.27 89.43 -17.29 87.23 -17.32 85.03 C-17.34 83.5 -17.36 81.98 -17.38 80.46 C-17.43 76.44 -17.48 72.43 -17.53 68.41 C-17.58 64.31 -17.64 60.22 -17.69 56.12 C-17.8 48.08 -17.9 40.04 -18 32 C-18.28 32.8 -18.55 33.61 -18.84 34.43 C-19.89 37.49 -20.94 40.55 -21.99 43.6 C-22.44 44.91 -22.89 46.22 -23.34 47.53 C-27.76 60.4 -32.35 73.21 -37 86 C-43.6 86 -50.2 86 -57 86 C-59.53 78.99 -62.05 71.98 -64.58 64.97 C-65.44 62.58 -66.3 60.2 -67.16 57.81 C-68.4 54.38 -69.63 50.95 -70.87 47.52 C-71.25 46.46 -71.63 45.4 -72.03 44.3 C-72.39 43.3 -72.75 42.3 -73.12 41.27 C-73.44 40.4 -73.75 39.52 -74.08 38.62 C-75.09 35.76 -76.05 32.88 -77 30 C-77.02 31.31 -77.02 31.31 -77.03 32.65 C-77.13 40.88 -77.23 49.1 -77.34 57.33 C-77.39 61.56 -77.45 65.79 -77.5 70.02 C-77.54 74.1 -77.6 78.17 -77.65 82.25 C-77.67 83.81 -77.69 85.37 -77.71 86.93 C-77.73 89.11 -77.76 91.28 -77.79 93.46 C-77.81 94.7 -77.83 95.94 -77.84 97.22 C-78 100 -78 100 -79 101 C-83.95 101 -88.9 101 -94 101 C-94 68 -94 35 -94 1 C-86.41 1 -78.82 1 -71 1 C-65.86 12.65 -61.93 24.69 -57.88 36.75 C-56.8 39.94 -55.72 43.13 -54.64 46.32 C-53.98 48.29 -53.31 50.26 -52.65 52.24 C-50.87 57.53 -48.99 62.78 -47 68 C-43.25 60.11 -40.45 51.95 -37.6 43.7 C-32.64 29.37 -27.54 15.12 -22 1 C-18.52 0.83 -15.04 0.67 -11.56 0.5 C-10.57 0.45 -9.58 0.4 -8.55 0.36 C-7.14 0.29 -7.14 0.29 -5.69 0.22 C-4.82 0.18 -3.94 0.13 -3.04 0.09 C-1 0 -1 0 0 0 Z " fill="#000000" transform="translate(801,172)"/>
<path d="M0 0 C8.25 0 16.5 0 25 0 C25 12.87 25 25.74 25 39 C26.65 37.35 28.3 35.7 30 34 C30.59 33.43 31.17 32.85 31.77 32.26 C35.37 28.72 38.75 25.06 42.05 21.23 C45.1 17.74 48.24 14.33 51.38 10.91 C53.93 8.25 53.93 8.25 55.31 5.89 C57.04 3.36 58.45 1.74 61 0 C66.35 -0.99 71.53 -0.76 76.94 -0.5 C78.4 -0.46 79.86 -0.42 81.32 -0.39 C84.88 -0.3 88.44 -0.17 92 0 C87.89 4.85 83.67 9.56 79.31 14.19 C78.07 15.51 76.83 16.83 75.59 18.16 C74.99 18.81 74.38 19.46 73.75 20.12 C70.37 23.75 67.02 27.41 63.68 31.08 C61.79 33.14 59.89 35.19 57.98 37.23 C57.48 37.77 56.98 38.31 56.47 38.86 C55.09 40.34 53.7 41.83 52.31 43.31 C50.2 45.77 48.56 48.17 47 51 C52.36 56.9 57.7 62.78 63.39 68.36 C65.16 70.16 66.8 72.03 68.44 73.94 C70.86 76.75 73.36 79.4 76 82 C81.74 87.66 86.85 93.81 92 100 C60.99 102.25 60.99 102.25 54.38 97.39 C51.28 94.31 49.16 90.78 47 87 C45.87 85.63 44.71 84.29 43.5 83 C42.72 82.1 42.72 82.1 41.93 81.18 C40.29 79.33 38.63 77.53 36.95 75.73 C36.4 75.15 35.85 74.56 35.29 73.96 C34.2 72.8 33.1 71.64 32 70.48 C29.68 68 28.09 66.26 27 63 C26.34 63 25.68 63 25 63 C25 75.21 25 87.42 25 100 C16.75 100 8.5 100 0 100 C0 67 0 34 0 0 Z " fill="#000000" transform="translate(1169,23)"/>
<path d="M0 0 C29.7 0 59.4 0 90 0 C90 7.26 90 14.52 90 22 C79.44 22 68.88 22 58 22 C58 47.74 58 73.48 58 100 C49.42 100 40.84 100 32 100 C32 74.26 32 48.52 32 22 C21.44 22 10.88 22 0 22 C0 14.74 0 7.48 0 0 Z " fill="#000000" transform="translate(646,23)"/>
<path d="M0 0 C5.94 0 11.88 0 18 0 C18.02 13.67 18.04 27.35 18.05 41.02 C18.06 47.37 18.06 53.72 18.08 60.06 C18.09 66.18 18.09 72.31 18.09 78.43 C18.1 80.77 18.1 83.11 18.11 85.45 C18.11 88.72 18.11 91.98 18.11 95.25 C18.12 96.23 18.12 97.2 18.12 98.21 C18.12 99.1 18.12 99.98 18.12 100.89 C18.12 101.67 18.12 102.44 18.12 103.24 C18 105 18 105 17 106 C14.81 106.07 12.62 106.08 10.44 106.06 C8.64 106.05 8.64 106.05 6.81 106.04 C5.42 106.02 5.42 106.02 4 106 C3.01 103.69 2.02 101.38 1 99 C0.48 99.41 -0.04 99.82 -0.57 100.24 C-1.27 100.78 -1.97 101.32 -2.69 101.88 C-3.37 102.41 -4.06 102.94 -4.76 103.49 C-11.82 108.24 -20.23 108.03 -28.41 106.57 C-35.81 104.19 -41.31 98.85 -44.88 92.06 C-50.98 79.27 -51.2 62.01 -47.31 48.5 C-43.95 39.61 -39.46 34.46 -31 30 C-23.73 26.77 -17.79 26.58 -10 28 C-6.7 29.65 -3.4 31.3 0 33 C0 22.11 0 11.22 0 0 Z M-27.25 46.25 C-31.55 53.01 -31.37 60.1 -31.38 67.88 C-31.4 68.91 -31.42 69.95 -31.45 71.02 C-31.47 77.78 -30.61 83.2 -27 89 C-23.45 92.46 -20.77 93.83 -15.81 94.31 C-10.12 93.85 -5.99 91.96 -1.92 87.95 C0.65 84 0.63 80.99 0.64 76.38 C0.65 75.55 0.66 74.73 0.67 73.88 C0.69 72.14 0.69 70.4 0.69 68.66 C0.69 66.01 0.75 63.36 0.81 60.7 C0.82 59.01 0.82 57.32 0.82 55.62 C0.85 54.84 0.87 54.05 0.9 53.23 C0.84 49.97 0.78 47.86 -1.47 45.39 C-9.6 39.31 -19.82 38.82 -27.25 46.25 Z " fill="#000000" transform="translate(562,167)"/>
<path d="M0 0 C0.88 0.01 1.75 0.02 2.66 0.03 C12.65 0.29 19.91 2.66 27.37 9.46 C32.42 15.15 33.77 19.02 33.62 26.44 C33.65 27.61 33.65 27.61 33.67 28.8 C33.63 34.95 31.93 38.61 27.53 43.05 C25.1 44.93 22.68 46.73 20.12 48.44 C21.3 48.93 22.48 49.43 23.69 49.94 C29.33 52.75 33.44 57.13 36.3 62.74 C38.44 69.73 38.26 78.81 35.38 85.56 C34.66 86.88 33.92 88.17 33.12 89.44 C32.59 90.32 32.05 91.21 31.5 92.12 C21.5 101.86 9.85 103.91 -3.55 103.79 C-15.21 103.47 -25.53 99.96 -34 91.56 C-34.93 90.51 -34.93 90.51 -35.88 89.44 C-34.47 86.22 -32.77 84.12 -30.25 81.69 C-29.62 81.07 -28.99 80.46 -28.34 79.83 C-27.61 79.14 -27.61 79.14 -26.88 78.44 C-23.16 80.16 -20.24 82.44 -17.07 85 C-9.84 89.73 -1.15 89.1 7.12 88.44 C12.08 87.25 14.38 85.6 17.12 81.31 C19.02 75.6 18.85 69.75 17.06 64.06 C13.84 59.69 9.47 57.45 4.12 56.44 C1.54 56.21 -1.03 56.02 -3.62 55.88 C-4.67 55.81 -4.67 55.81 -5.74 55.74 C-7.45 55.64 -9.16 55.54 -10.88 55.44 C-10.88 51.15 -10.88 46.86 -10.88 42.44 C-9.88 42.4 -8.89 42.36 -7.88 42.32 C2.51 41.97 2.51 41.97 12.12 38.44 C15.6 33.87 15.87 28.98 15.12 23.44 C13.38 19.21 11.2 17.43 7.12 15.44 C-0.04 12.72 -8.08 14.56 -14.88 17.44 C-18.68 19.61 -22.24 21.97 -25.88 24.44 C-28.85 21.47 -31.81 18.5 -34.88 15.44 C-27.19 4.31 -13.02 -0.16 0 0 Z " fill="#000000" transform="translate(463.875,170.5625)"/>
<path d="M0 0 C5.12 6.48 7.25 12.09 7.25 20.38 C7.26 21.5 7.26 22.61 7.26 23.77 C7.26 24.96 7.26 26.16 7.26 27.39 C7.26 28.62 7.26 29.86 7.26 31.13 C7.26 34.4 7.26 37.66 7.25 40.93 C7.25 42.94 7.25 44.95 7.26 46.96 C7.26 50.81 7.26 54.66 7.26 58.52 C7.26 59.72 7.26 60.92 7.26 62.16 C7.26 63.82 7.26 63.82 7.25 65.51 C7.25 66.49 7.25 67.47 7.25 68.47 C7.12 70.69 7.12 70.69 6.12 71.69 C3.94 71.76 1.75 71.77 -0.44 71.75 C-2.23 71.74 -2.23 71.74 -4.07 71.72 C-5.46 71.71 -5.46 71.71 -6.88 71.69 C-7.37 68.22 -7.37 68.22 -7.88 64.69 C-8.46 65.1 -9.04 65.51 -9.63 65.93 C-10.41 66.47 -11.2 67.01 -12 67.56 C-12.77 68.1 -13.53 68.63 -14.32 69.18 C-21.79 73.59 -30.44 73.75 -38.88 72.69 C-46.45 70.46 -50.7 66.46 -54.98 60.03 C-56.32 56.51 -56.2 53.02 -56.19 49.31 C-56.2 48.57 -56.22 47.83 -56.24 47.06 C-56.24 41.41 -55.1 37.41 -51.44 32.93 C-40.22 23.11 -25.98 23.6 -11.88 23.69 C-11.37 16.16 -11.37 16.16 -14.88 9.69 C-19.99 6.43 -26.05 7.13 -31.88 7.69 C-35.12 8.59 -38.19 9.65 -41.32 10.91 C-44.09 11.75 -45.27 11.94 -47.88 10.69 C-49.14 8.91 -49.14 8.91 -50.12 6.75 C-50.46 6.04 -50.8 5.33 -51.14 4.6 C-51.88 2.69 -51.88 2.69 -51.88 0.69 C-35.68 -6.98 -15.5 -12.47 0 0 Z M-36.72 40.5 C-38.22 43.35 -38.31 45.48 -38.31 48.69 C-38.33 49.72 -38.35 50.75 -38.37 51.81 C-37.76 55.35 -36.63 56.47 -33.88 58.69 C-29.87 60.69 -24.91 60.17 -20.64 59.16 C-16.5 57.73 -13.53 56.31 -10.88 52.69 C-10.39 49.75 -10.5 46.9 -10.62 43.94 C-10.64 43.14 -10.66 42.35 -10.68 41.54 C-10.73 39.59 -10.8 37.64 -10.88 35.69 C-13.75 35.61 -16.62 35.55 -19.5 35.5 C-20.31 35.47 -21.12 35.45 -21.95 35.42 C-27.95 35.35 -32.26 36.12 -36.72 40.5 Z " fill="#000000" transform="translate(872.875,201.3125)"/>
<path d="M0 0 C3.07 -0.22 6.12 -0.37 9.19 -0.5 C10.05 -0.57 10.92 -0.63 11.81 -0.7 C14.41 -0.78 16.5 -0.72 19 0 C21.42 2.3 22.61 5 24 8 C24.89 9.65 25.78 11.29 26.68 12.94 C27.56 14.62 28.44 16.31 29.31 18 C29.99 19.31 29.99 19.31 30.69 20.64 C31.8 22.76 32.9 24.88 34 27 C36.74 23.71 38.99 20.47 41.02 16.7 C41.54 15.72 42.07 14.75 42.62 13.74 C43.16 12.73 43.69 11.73 44.25 10.69 C44.8 9.66 45.36 8.63 45.93 7.58 C47.29 5.05 48.65 2.53 50 0 C55.94 0 61.88 0 68 0 C67.13 3.46 66.35 5.38 64.56 8.34 C64.06 9.17 63.56 10 63.05 10.85 C62.52 11.73 61.99 12.6 61.44 13.5 C60.9 14.39 60.36 15.29 59.81 16.21 C56.2 22.17 52.41 27.91 48.23 33.49 C46.51 37 46.75 38.28 48 42 C49.99 45.51 52.26 48.81 54.56 52.12 C55.19 53.05 55.83 53.98 56.48 54.94 C58.31 57.63 60.15 60.32 62 63 C63.63 65.39 65.26 67.79 66.88 70.19 C67.49 71.09 68.11 71.99 68.74 72.92 C70 75 70 75 70 77 C65.18 77.39 60.42 77.65 55.59 77.53 C54.8 77.51 54 77.49 53.19 77.47 C50.39 76.87 49.29 75.77 47.44 73.62 C46.59 71.77 45.79 69.89 45 68 C43.72 65.62 42.38 63.28 41.04 60.93 C38.98 57.31 36.99 53.66 35 50 C32.08 53.17 30.25 56.43 28.43 60.3 C20.88 75.81 20.88 75.81 15.54 78.02 C9.89 78.93 4.56 78.16 -1 77 C2.49 69.43 7.03 62.61 11.62 55.69 C12.41 54.5 13.19 53.31 13.98 52.12 C16.64 48.07 19.31 44.03 22 40 C21.68 36.04 20.23 33.38 18.09 30.09 C17.49 29.16 16.89 28.23 16.28 27.28 C15.65 26.32 15.02 25.36 14.38 24.38 C12.54 21.54 12.54 21.54 10.71 18.71 C8.8 15.77 6.89 12.84 4.98 9.91 C4.34 8.92 3.7 7.93 3.04 6.91 C2.46 6.02 1.87 5.12 1.27 4.2 C0 2 0 2 0 0 Z " fill="#000000" transform="translate(891,196)"/>
<path d="M0 0 C-1.36 2.99 -2.95 5.29 -5.12 7.75 C-5.66 8.36 -6.2 8.98 -6.76 9.61 C-7.17 10.07 -7.58 10.53 -8 11 C-8.7 10.64 -9.41 10.28 -10.13 9.91 C-18.03 6.19 -25.27 4.65 -34 6 C-36.44 7.09 -36.44 7.09 -38 9 C-38.48 11.28 -38.48 11.28 -38.25 13.69 C-38.2 14.9 -38.2 14.9 -38.14 16.14 C-38.09 16.75 -38.05 17.37 -38 18 C-34.77 19.31 -31.52 20.55 -28.23 21.73 C-27.34 22.06 -26.45 22.39 -25.54 22.73 C-23.7 23.4 -21.86 24.07 -20.01 24.73 C-12.93 27.36 -5.68 30.48 -1 36.62 C1.6 42.8 2.13 49.78 0.39 56.29 C-2.26 62.34 -6.9 66.25 -12.93 68.82 C-18.66 70.95 -23.85 71.48 -29.94 71.38 C-30.82 71.37 -31.7 71.36 -32.6 71.35 C-42.45 71.12 -50.86 68.75 -59 63 C-59.66 62.01 -60.32 61.02 -61 60 C-58.36 57.03 -55.72 54.06 -53 51 C-50.49 52 -47.98 53.01 -45.49 54.07 C-37.68 57.22 -29.92 58.88 -21.88 55.56 C-19.18 54.27 -19.18 54.27 -18 53 C-17.5 48.93 -17.5 48.93 -18 45 C-22.78 39.77 -30.19 38.31 -36.72 36.18 C-44.29 33.58 -49.85 30.15 -55.5 24.5 C-58.12 18.38 -58.28 11.06 -56.27 4.68 C-52.34 -2.73 -45.55 -5.49 -38 -8 C-24.65 -11.27 -11.33 -7.05 0 0 Z " fill="#000000" transform="translate(652,203)"/>
</svg>
